<svg xmlns="http://www.w3.org/2000/svg" width="36.68" height="36.699" viewBox="0 0 9.705 9.71"><g transform="translate(-16.102 -18.978)"><rect width="9.705" height="9.674" x="16.102" y="18.978" rx=".125" ry=".125" style="opacity:.93;fill:#000;stroke-width:.0438772"/><path d="M89.34 136.435q6.44 11.438 18.434 17.657-17.324 2.999-33.871-6.663-13.326-7.884-19.1-19.989-6.886-14.548 1.22-26.763 4.998-7.44 14.882-12.66-8.33-9.883-3.332-19.323 4.109-7.773 14.548-10.994 8.995-2.665 18.323-.222Q86.563 75.024 83.12 96.901q-3.442 22.543 6.22 39.534Zm25.652-45.642q14.103 7.552 19.989 20.212 6.33 13.77-.444 26.43-4.553 8.44-12.66 11.549-5.553 2.221-10.994.777-11.55-3.664-18.323-16.88-8.44-16.213-4.776-37.09 3.554-19.545 17.213-36.87 9.884 3.888 13.882 12.105 4.553 9.218-1.666 17.324-1 1.333-2.221 2.443zm-5.33-37.535q-2.666 3.11-4.665 5.664-1.554-.555-4.553-1.444 1-1.444 3.22-4.109 1.666-1.999 2.444-2.998z" aria-label="8" style="font-size:113.716px;line-height:1.25;font-family:&quot;Extra Step&quot;;-inkscape-font-specification:&quot;Extra Step, Normal&quot;;letter-spacing:0;word-spacing:0;fill:#fff;stroke-width:2.84285" transform="matrix(.07173 0 0 .0715 14.948 17.618)"/></g></svg>